HIERARCHY
ROOT Hips
{
	OFFSET 0.00000 0.00000 0.00000
	CHANNELS 6 Xposition Yposition Zposition Zrotation Yrotation Xrotation 
	JOINT LHipJoint
	{
		OFFSET 0 0 0
		CHANNELS 3 Zrotation Yrotation Xrotation
		JOINT LeftHip
		{
			OFFSET 1.34019 -1.87553 0.90315
			CHANNELS 3 Zrotation Yrotation Xrotation
			JOINT LeftKnee
			{
				OFFSET 2.55316 -7.01474 0.00000
				CHANNELS 3 Zrotation Yrotation Xrotation
				JOINT LeftAnkle
				{
					OFFSET 2.64657 -7.27139 0.00000
					CHANNELS 3 Zrotation Yrotation Xrotation
					JOINT LeftToe
					{
						OFFSET 0.24207 -0.66507 2.14489
						CHANNELS 3 Zrotation Yrotation Xrotation
						End Site
						{
							OFFSET 0.00000 -0.00000 1.12451
						}
					}
				}
			}
		}
	}
	JOINT RHipJoint
	{
		OFFSET 0 0 0
		CHANNELS 3 Zrotation Yrotation Xrotation
		JOINT RightHip
		{
			OFFSET -1.28320 -1.87553 0.90315
			CHANNELS 3 Zrotation Yrotation Xrotation
			JOINT RightKnee
			{
				OFFSET -2.60484 -7.15674 0.00000
				CHANNELS 3 Zrotation Yrotation Xrotation
				JOINT RightAnkle
				{
					OFFSET -2.60296 -7.15159 0.00000
					CHANNELS 3 Zrotation Yrotation Xrotation
					JOINT RightToe
					{
						OFFSET -0.31082 -0.85398 2.28998
						CHANNELS 3 Zrotation Yrotation Xrotation
						End Site
						{
							OFFSET -0.00000 -0.00000 1.21611
						}
					}
				}
			}
		}
	}
	JOINT lowerback
	{
		OFFSET 0 0 0
		CHANNELS 3 Zrotation Yrotation Xrotation
		JOINT Chest
		{
			OFFSET -0.00160 2.05581 -0.15156
			CHANNELS 3 Zrotation Yrotation Xrotation
			JOINT Chest2
			{
				OFFSET 0.04594 2.06326 -0.01617
				CHANNELS 3 Zrotation Yrotation Xrotation
				JOINT lowerneck
				{
					OFFSET 0 0 0
					CHANNELS 3 Zrotation Yrotation Xrotation
					JOINT Neck
					{
						OFFSET 0.03753 1.73883 0.26751
						CHANNELS 3 Zrotation Yrotation Xrotation
						JOINT Head
						{
							OFFSET -0.09795 1.76129 -0.31794
							CHANNELS 3 Zrotation Yrotation Xrotation
							End Site
							{
								OFFSET -0.03611 1.79987 -0.13846
							}
						}
					}
				}
				JOINT LeftCollar
				{
					OFFSET 0 0 0
					CHANNELS 3 Zrotation Yrotation Xrotation
					JOINT LeftShoulder
					{
						OFFSET 3.30667 1.29205 -0.22445
CHANNELS 3 Zrotation Xrotation Yrotation
						JOINT LeftElbow
						{
OFFSET 0 -4.927850 -0.000000
CHANNELS 3 Zrotation Xrotation Yrotation
							JOINT LeftWrist
							{
OFFSET 0 -3.440520 0.000000
CHANNELS 3 Zrotation Xrotation Yrotation
								JOINT lhand
								{
									OFFSET 0 0 0
CHANNELS 3 Zrotation Xrotation Yrotation
									JOINT LFingers
									{
OFFSET 0 -0.654330 0.000000
CHANNELS 3 Zrotation Xrotation Yrotation
										End Site
										{
OFFSET 0 -0.527530 0.000000
										}
									}
								}
								JOINT LThumb
								{
OFFSET 0 0.000000 0.000000
CHANNELS 3 Zrotation Xrotation Yrotation
									End Site
									{
OFFSET 0 -0.535590 0.535590
									}
								}
							}
						}
					}
				}
				JOINT RightCollar
				{
					OFFSET 0 0 0
					CHANNELS 3 Zrotation Yrotation Xrotation
					JOINT RightShoulder
					{
						OFFSET -3.20032 1.49783 -0.27688
CHANNELS 3 Zrotation Xrotation Yrotation
						JOINT RightElbow
						{
OFFSET 0 -5.091810 -0.000000
CHANNELS 3 Zrotation Xrotation Yrotation
							JOINT RightWrist
							{
OFFSET 0 -3.498650 -0.000000
CHANNELS 3 Zrotation Xrotation Yrotation
								JOINT rhand
								{
									OFFSET 0 0 0
CHANNELS 3 Zrotation Xrotation Yrotation
									JOINT RFingers
									{
OFFSET 0 -0.666410 0.000000
CHANNELS 3 Zrotation Xrotation Yrotation
										End Site
										{
OFFSET 0 -0.537280 0.000000
										}
									}
								}
								JOINT RThumb
								{
OFFSET 0 0.000000 0.000000
CHANNELS 3 Zrotation Xrotation Yrotation
									End Site
									{
OFFSET 0 -0.545480 0.545480
									}
								}
							}
						}
					}
				}
			}
		}
	}
}
MOTION
Frames: 8
Frame Time: 0.008333333333333333
2.057690 17.902176 39.035767 2.800323 179.917773 362.624823 0.000000 0.000000 0.000000 -13.904729 -3.072532 -6.819160 2.004768 8.876033 25.408297 -0.062846 13.604284 -18.577344 0.324267 -3.660174 -10.122450 0.000000 0.000000 0.000000 17.473044 0.436057 -9.748097 -2.389219 -9.633638 27.798221 0.177986 -15.639369 -20.292371 -0.037410 1.249146 -3.434696 -0.111863 -0.295705 1.666048 2.679395 -0.303057 -0.195374 2.820094 -0.115410 -1.119380 5.051288 2.281047 -20.451559 -6.981268 3.343917 17.894119 -2.771229 1.203043 9.205631 0.000000 0.000000 0.000000 -0.796710 9.471173 -17.782491 15.823742 -25.281136 3.570401 11.611010 -6.238145 -1.112445 0.000000 0.000000 0.000000 -7.125000 0.000000 0.000000 -11.864052 30.983577 -4.142554 0.000000 0.000000 0.000000 -7.013396 4.374549 12.333923 -14.108645 -22.889851 -2.870265 -14.613726 -2.291886 3.970942 0.000000 0.000000 0.000000 7.125000 0.000000 0.000000 9.846412 33.957075 2.700986
2.164590 17.898867 38.979053 2.880685 180.184993 362.450095 0.000000 0.000000 0.000000 -13.417722 -2.721116 -6.545120 1.995148 8.855895 25.345595 -0.034300 13.313340 -18.507010 0.339710 -3.745663 -10.362088 0.000000 0.000000 0.000000 18.002658 0.408623 -9.272274 -2.395981 -9.646220 27.838407 0.191862 -16.006460 -20.707603 -0.038971 1.273676 -3.502106 -0.264648 -0.462631 1.522515 2.694320 -0.664806 -0.101676 2.929182 -0.354189 -0.922914 4.631311 2.248940 -20.599704 -6.605242 3.384936 18.435897 -2.570235 1.234227 9.408519 0.000000 0.000000 0.000000 -0.989698 10.081319 -17.680126 16.473598 -26.158598 3.852390 12.125788 -7.013506 -0.974779 0.000000 0.000000 0.000000 -7.125000 0.000000 0.000000 -11.443344 30.856937 -4.025777 0.000000 0.000000 0.000000 -6.803364 4.771526 11.393435 -13.102320 -21.436937 -2.490564 -14.198459 -0.515929 4.284172 0.000000 0.000000 0.000000 7.125000 0.000000 0.000000 10.226288 34.258219 2.732173
2.232396 17.899300 38.936299 3.167842 180.828713 362.290406 0.000000 0.000000 0.000000 -12.914960 -3.273869 -6.182041 2.009851 8.886655 25.441316 -0.041304 13.448104 -18.615714 0.327452 -3.677762 -10.171918 0.000000 0.000000 0.000000 18.604161 0.037108 -8.765226 -2.346413 -9.553190 27.541495 0.205041 -16.257231 -20.953062 -0.037616 1.252085 -3.442577 -0.359472 -0.587062 1.552283 2.799791 -0.833926 -0.161573 3.096347 -0.438800 -0.989354 4.616671 2.364769 -19.203361 -6.389249 3.405129 16.614036 -2.474770 1.287346 8.530980 0.000000 0.000000 0.000000 -0.552843 10.150001 -17.190923 16.574740 -26.293758 3.897109 12.731102 -7.752444 -1.342490 0.000000 0.000000 0.000000 -7.125000 0.000000 0.000000 -11.013378 31.239344 -3.766373 0.000000 0.000000 0.000000 -6.773301 5.309029 10.508055 -12.701707 -20.848529 -2.346046 -14.336184 0.052918 4.494278 0.000000 0.000000 0.000000 7.125000 0.000000 0.000000 10.143926 34.477367 2.654795
2.267789 17.890711 38.892189 3.588330 180.527324 362.384886 0.000000 0.000000 0.000000 -12.298358 -2.915199 -6.250532 2.029633 8.927510 25.568695 -0.017023 13.397299 -18.839017 0.326200 -3.670868 -10.152447 0.000000 0.000000 0.000000 19.202943 0.348633 -8.521309 -2.321745 -9.506412 27.392558 0.174534 -16.182205 -21.169941 -0.033711 1.185279 -3.258759 -0.229537 -0.617341 1.435937 2.833100 -0.881062 -0.003626 3.055058 -0.467853 -0.760818 4.234832 2.363242 -19.873373 -5.781108 3.373976 17.083869 -2.210625 1.293360 8.788375 0.000000 0.000000 0.000000 0.017314 9.562346 -16.151453 16.674932 -26.427209 3.941577 13.232778 -8.554991 -1.321813 0.000000 0.000000 0.000000 -7.125000 0.000000 0.000000 -10.615820 31.229680 -3.628636 0.000000 0.000000 0.000000 -6.824740 4.675470 10.756197 -12.774491 -20.955886 -2.372030 -14.120821 0.494110 4.795290 0.000000 0.000000 0.000000 7.125000 0.000000 0.000000 10.362675 34.773156 2.637938
2.247244 17.878872 38.856086 3.881665 179.992432 362.430708 0.000000 0.000000 0.000000 -12.060731 -2.581924 -6.347119 2.087584 9.046225 25.940074 0.009257 13.507382 -19.307859 0.310101 -3.579947 -9.897925 0.000000 0.000000 0.000000 19.427812 0.574946 -8.341822 -2.305686 -9.475672 27.295002 0.122630 -15.844424 -21.217658 -0.032771 1.169101 -3.214273 -0.551593 -0.459391 1.358174 3.035144 -0.517698 0.099104 3.436399 -0.218485 -0.626720 4.240099 2.119441 -19.449414 -5.801838 3.023161 16.605512 -2.262830 1.132987 8.531727 0.000000 0.000000 0.000000 0.257426 9.246569 -16.264045 16.593561 -26.318906 3.905402 13.887690 -9.809032 -1.273188 0.000000 0.000000 0.000000 -7.125000 0.000000 0.000000 -10.093870 31.194689 -3.453681 0.000000 0.000000 0.000000 -7.151942 4.222125 11.548323 -13.488780 -21.999143 -2.633550 -14.397596 -1.274036 4.397126 0.000000 0.000000 0.000000 7.125000 0.000000 0.000000 10.080174 34.381454 2.661473
2.184511 17.849979 38.811265 4.116254 178.864598 362.438234 0.000000 0.000000 0.000000 -12.058351 -1.648258 -6.570846 2.187911 9.246982 26.571030 0.061089 13.648524 -20.094103 0.259916 -3.280002 -9.059318 0.000000 0.000000 0.000000 19.379607 1.198959 -8.112506 -2.329828 -9.521721 27.441343 0.028025 -15.220856 -21.314071 -0.035770 1.221037 -3.357238 -1.098941 0.093715 1.586036 3.257625 0.220658 0.226858 3.962802 0.155560 -0.673267 4.469554 1.829724 -19.800639 -5.963106 2.594062 16.890885 -2.415286 0.921446 8.671592 0.000000 0.000000 0.000000 0.202391 8.600193 -16.609610 15.840804 -25.304221 3.577686 14.100206 -9.125738 -1.238658 0.000000 0.000000 0.000000 -7.125000 0.000000 0.000000 -9.922324 31.164031 -3.400862 0.000000 0.000000 0.000000 -7.385262 3.905296 12.766441 -14.761893 -23.813293 -3.129240 -14.608659 -3.531751 4.188478 0.000000 0.000000 0.000000 7.125000 0.000000 0.000000 9.879885 34.178164 2.656631
2.046342 17.796996 38.750260 4.442879 177.703796 362.453175 0.000000 0.000000 0.000000 -12.255667 -0.726660 -7.301216 2.446010 9.739028 28.135832 0.133330 13.983280 -21.311909 0.197924 -2.864442 -7.901554 0.000000 0.000000 0.000000 19.168674 2.093594 -7.827824 -2.382062 -9.620276 27.755529 -0.073539 -14.638242 -21.564278 -0.039482 1.282455 -3.526375 -0.274929 -0.199665 1.928162 3.174738 -0.151819 0.575784 3.418862 -0.033701 -0.481241 4.145994 2.233969 -20.001505 -5.402728 3.081545 16.617807 -2.103397 1.178918 8.627214 0.000000 0.000000 0.000000 -0.251351 7.037027 -14.815457 14.286814 -23.143055 2.940032 14.027277 -7.961759 -1.520142 0.000000 0.000000 0.000000 -7.125000 0.000000 0.000000 -10.011926 31.448277 -3.363014 0.000000 0.000000 0.000000 -7.522896 2.848660 15.810239 -15.947860 -25.449870 -3.623561 -14.208138 -4.026686 3.978006 0.000000 0.000000 0.000000 7.125000 0.000000 0.000000 10.176009 33.948163 2.796070
1.797793 17.715556 38.635268 4.855359 176.080067 362.277661 0.000000 0.000000 0.000000 -12.901058 -0.020312 -7.824277 2.848813 10.446084 30.433839 0.226056 14.895758 -23.382978 0.125983 -2.287710 -6.301455 0.000000 0.000000 0.000000 18.652966 3.158857 -7.304221 -2.478613 -9.798941 28.328067 -0.146796 -14.084162 -21.581115 -0.049937 1.441919 -3.965622 0.343982 -0.050990 2.275899 3.378617 0.085170 1.014650 3.274966 0.093561 -0.240704 5.021931 2.541892 -20.132497 -5.608025 3.237841 16.184022 -2.294301 1.276531 8.528795 0.000000 0.000000 0.000000 -1.138832 4.390930 -13.625342 12.478734 -20.518660 2.267310 13.635462 -7.776286 -1.689634 0.000000 0.000000 0.000000 -7.125000 0.000000 0.000000 -10.341581 31.610797 -3.435910 0.000000 0.000000 0.000000 -7.975988 2.427721 17.917238 -17.012279 -26.873910 -4.092906 -14.384926 -4.900928 3.955277 0.000000 0.000000 0.000000 7.125000 0.000000 0.000000 10.029709 33.932043 2.758770
